<?xml version="1.0" encoding="UTF-8"?><svg id="Layer_1" xmlns="http://www.w3.org/2000/svg" xmlns:xlink="http://www.w3.org/1999/xlink" viewBox="0 0 32.1 11.53"><defs><style>.cls-1{fill:none;}.cls-1,.cls-2{stroke-width:0px;}.cls-3{fill:#8b5e3c;stroke:#8b5e3c;}.cls-3,.cls-4,.cls-5,.cls-6{stroke-miterlimit:10;}.cls-4{fill:#ea532f;stroke:#ea532f;}.cls-5{fill:#329c49;stroke:#329c49;}.cls-6{fill:#f2e5eb;stroke:#f2e5eb;}.cls-2{fill:#fff;}</style><symbol id="New_Symbol" viewBox="0 0 45.12 43.94"><ellipse class="cls-4" cx="22.56" cy="26.07" rx="22.06" ry="17.37"/><path class="cls-5" d="m17.85,9.41c-2.11-.44-4.59-.81-7.38-.94-2-.09-3.85-.05-5.5.07.97.85,2.65,2.1,5.04,2.93,2.85.99,5.34.89,6.69.74-1.03.76-2.59,2.12-3.82,4.28-1.97,3.44-1.88,6.78-1.77,8.14.31-1.36,1.13-4.07,3.38-6.7,2.28-2.66,4.86-3.89,6.17-4.4.38.96,1.44,3.26,3.93,5.05,2.84,2.03,5.76,2.12,6.76,2.11-.65-.14-4.32-1-6.28-4.48-.99-1.77-1.13-3.47-1.13-4.41,1.44-.34,3.41-.63,5.74-.48,3.66.23,6.46,1.43,8.09,2.29-1.13-1.3-3.63-3.8-7.6-4.9-1.51-.42-2.88-.53-4-.53,1.1-.72,2.5-1.49,4.2-2.15,2.42-.94,4.61-1.32,6.25-1.47-1.39-.41-5-1.28-9.18.1-2.85.94-4.77,2.53-5.79,3.52-.84-.95-2.98-3.09-6.48-4.04-2.52-.68-4.66-.46-5.87-.24,1.25.32,3.07.96,4.99,2.24,1.66,1.11,2.82,2.34,3.57,3.27Z"/><path class="cls-3" d="m24.85.65c-.28-.09-.84-.23-1.53-.1-.55.1-.96.32-1.19.48-.4,1.16-.81,2.71-.99,4.56-.18,1.9-.05,3.54.14,4.77.07.07.32.28.72.31.47.03.79-.25.84-.31.14-1.42.35-2.97.69-4.63.38-1.88.84-3.57,1.33-5.07Z"/><path class="cls-6" d="m8.54,17.43c-.25-.11-.75-.3-1.4-.3-.52,0-.92.1-1.16.19-.51.82-1.08,1.93-1.46,3.31-.4,1.42-.48,2.67-.45,3.63.06.06.26.26.62.34.43.09.76-.08.81-.11.3-1.06.69-2.2,1.2-3.41.58-1.37,1.21-2.58,1.84-3.65Z"/></symbol></defs><path class="cls-2" d="m6.08,3.03v1.57h-.52v-1.54c0-.21-.04-.37-.13-.47-.08-.1-.22-.15-.4-.15-.21,0-.38.07-.51.2-.13.13-.19.31-.19.53v1.44h-.52V.95h.52v1.51c.09-.14.2-.26.35-.33.14-.08.31-.11.49-.11.6,0,.91.34.91,1.02Z"/><path class="cls-2" d="m6.98,4.47c-.19-.11-.33-.26-.43-.46-.1-.2-.15-.43-.15-.69s.05-.5.15-.7c.1-.2.25-.35.43-.46.19-.11.41-.16.65-.16s.47.05.66.16c.19.11.33.26.43.46.1.2.15.43.15.7s-.05.49-.15.69c-.1.2-.25.35-.43.46-.19.11-.41.16-.66.16s-.47-.05-.65-.16Zm1.19-.48c.12-.15.18-.37.18-.67s-.06-.51-.19-.67c-.12-.15-.3-.23-.53-.23s-.4.08-.53.23c-.12.15-.19.38-.19.67s.06.52.18.67c.12.15.3.23.53.23s.41-.08.53-.23Z"/><path class="cls-2" d="m11.42,2.07v2.53h-.51v-.41c-.08.14-.19.26-.33.33-.14.08-.3.11-.47.11-.61,0-.92-.34-.92-1.01v-1.55h.52v1.54c0,.2.04.35.12.45.08.1.21.14.38.14.2,0,.37-.07.49-.2.12-.13.18-.31.18-.52v-1.42h.52Z"/><path class="cls-2" d="m11.73,4.31l.16-.38c.26.2.56.3.91.3.17,0,.3-.03.39-.09s.13-.14.13-.24c0-.09-.03-.16-.09-.21-.06-.05-.16-.09-.31-.13l-.42-.09c-.22-.05-.39-.14-.51-.25-.11-.12-.17-.27-.17-.45,0-.23.09-.41.28-.55.18-.14.43-.21.73-.21.18,0,.35.03.51.09.16.06.3.14.42.24l-.16.37c-.25-.2-.51-.3-.77-.3-.16,0-.28.03-.38.09-.09.06-.14.15-.14.25,0,.09.03.16.09.21.06.05.15.09.27.12l.43.1c.25.06.42.14.54.26.11.12.17.27.17.45,0,.23-.09.41-.28.54s-.43.2-.75.2c-.44,0-.79-.11-1.05-.32Z"/><path class="cls-2" d="m15.65,4.21l-.03.4c-.09.01-.18.02-.27.02-.33,0-.57-.08-.73-.24s-.24-.39-.24-.7v-1.22h-.49v-.4h.49v-.76h.52v.76h.69v.4h-.69v1.2c0,.37.17.55.51.55.08,0,.16,0,.23-.02Z"/><path class="cls-2" d="m16.32,4.47c-.19-.11-.33-.26-.43-.46-.1-.2-.15-.43-.15-.69s.05-.5.15-.7c.1-.2.25-.35.43-.46.19-.11.41-.16.65-.16s.47.05.66.16c.19.11.33.26.43.46.1.2.15.43.15.7s-.05.49-.15.69c-.1.2-.25.35-.43.46-.19.11-.41.16-.66.16s-.47-.05-.65-.16Zm1.19-.48c.12-.15.18-.37.18-.67s-.06-.51-.19-.67c-.12-.15-.3-.23-.53-.23s-.4.08-.53.23c-.12.15-.19.38-.19.67s.06.52.18.67c.12.15.3.23.53.23s.41-.08.53-.23Z"/><path class="cls-2" d="m20.81,3.03v1.57h-.52v-1.54c0-.21-.04-.37-.13-.47-.08-.1-.22-.15-.4-.15-.21,0-.38.07-.51.2-.13.13-.19.31-.19.53v1.44h-.52v-2.53h.51v.4c.08-.15.2-.27.35-.35.15-.08.32-.12.5-.12.6,0,.91.34.91,1.02Z"/><path class="cls-2" d="m3.92,9.04c-.2-.05-.36-.13-.5-.23l.21-.54c.14.09.29.17.46.22.17.05.33.08.5.08.12,0,.21-.02.28-.06.07-.04.1-.09.1-.16,0-.06-.02-.11-.07-.14-.05-.03-.13-.07-.26-.09l-.41-.09c-.25-.06-.43-.14-.54-.26-.12-.12-.17-.27-.17-.47,0-.16.05-.3.14-.42.09-.12.22-.22.39-.28.17-.07.36-.1.57-.1.18,0,.36.03.53.08s.33.13.47.23l-.21.52c-.27-.19-.54-.28-.8-.28-.12,0-.22.02-.28.06-.07.04-.1.1-.1.18,0,.06.02.1.06.13s.11.06.22.09l.43.1c.26.06.45.15.57.27s.18.28.18.48c0,.25-.1.44-.29.58-.2.14-.46.21-.81.21-.23,0-.45-.03-.64-.08Z"/><path class="cls-1" d="m6.64,8.96c-.2-.11-.35-.26-.45-.46-.11-.2-.16-.43-.16-.7s.05-.5.16-.7c.11-.2.26-.35.45-.46.2-.11.42-.16.68-.16s.49.05.68.16c.19.11.35.26.45.46s.16.43.16.7-.05.5-.16.7-.26.35-.45.46c-.2.11-.42.16-.68.16s-.49-.05-.68-.16Zm1.16-.55c.11-.14.17-.34.17-.61s-.06-.47-.17-.61c-.11-.14-.27-.21-.48-.21s-.37.07-.48.21-.17.34-.17.61.06.47.17.61c.11.14.27.21.48.21s.37-.07.48-.21Z"/><path class="cls-2" d="m11.58,6.54v2.54h-.76v-.36c-.08.13-.18.23-.31.3-.13.07-.28.1-.44.1-.32,0-.56-.09-.72-.27-.16-.18-.24-.45-.24-.81v-1.51h.78v1.53c0,.15.03.26.1.34.06.07.16.11.29.11.15,0,.28-.05.37-.16.09-.1.14-.24.14-.41v-1.41h.78Z"/><path class="cls-2" d="m14.06,6.65c.17.11.3.27.4.47s.14.43.14.7-.05.49-.14.69c-.09.2-.23.35-.4.46s-.36.16-.59.16c-.17,0-.33-.04-.47-.11-.14-.07-.25-.17-.32-.3v1.29h-.78v-3.47h.77v.36c.08-.13.18-.23.33-.31.14-.07.3-.11.48-.11.22,0,.41.06.58.17Zm-.39,1.7c.1-.12.15-.3.15-.53s-.05-.42-.15-.55c-.1-.13-.24-.19-.42-.19s-.32.06-.42.19c-.1.13-.15.31-.15.54s.05.41.15.54c.1.13.24.19.42.19s.32-.06.42-.18Z"/><path class="cls-2" d="m17.73,9.08l-1.2-1.19v1.19h-.52v-3.65h.52v2.26l1.11-1.13h.65l-1.2,1.21,1.3,1.31h-.66Z"/><path class="cls-2" d="m19.15,5.43v.54h-.6v-.54h.6Zm-.56,1.13h.52v2.53h-.52v-2.53Z"/><path class="cls-2" d="m21.09,8.7l-.03.4c-.09.01-.18.02-.27.02-.33,0-.57-.08-.73-.24s-.24-.39-.24-.7v-1.22h-.49v-.4h.49v-.76h.52v.76h.69v.4h-.69v1.2c0,.37.17.55.51.55.08,0,.16,0,.23-.02Z"/><path class="cls-2" d="m21.74,8.96c-.19-.11-.33-.26-.43-.45-.1-.2-.15-.42-.15-.69s.05-.49.16-.69.25-.36.45-.47c.19-.11.42-.17.67-.17.18,0,.35.03.51.09.16.06.3.14.4.24l-.16.37c-.23-.19-.46-.28-.71-.28s-.43.08-.57.24-.2.38-.2.67.07.5.2.65c.13.15.32.23.57.23s.48-.09.71-.28l.16.38c-.11.1-.25.18-.41.24-.17.06-.34.09-.52.09-.26,0-.48-.05-.67-.16Z"/><path class="cls-2" d="m25.81,7.51v1.57h-.52v-1.54c0-.21-.04-.37-.13-.47-.08-.1-.22-.15-.4-.15-.21,0-.38.07-.51.2-.13.13-.19.31-.19.53v1.44h-.52v-3.65h.52v1.51c.09-.14.2-.26.35-.33.14-.08.31-.11.49-.11.6,0,.91.34.91,1.02Z"/><path class="cls-2" d="m28.43,7.91h-1.79c.04.54.3.8.8.8.29,0,.55-.09.79-.28l.16.37c-.12.1-.26.18-.44.24-.17.06-.35.09-.53.09-.4,0-.72-.12-.96-.35-.23-.23-.35-.55-.35-.96,0-.26.05-.49.15-.69.1-.2.25-.36.43-.47.18-.11.39-.17.63-.17.34,0,.61.11.81.33.2.22.29.53.29.92v.17Zm-1.57-.84c-.12.13-.19.31-.21.54h1.33c-.01-.23-.07-.41-.18-.54-.11-.13-.26-.19-.46-.19s-.36.06-.48.19Z"/><path class="cls-2" d="m31.02,7.51v1.57h-.52v-1.54c0-.21-.04-.37-.13-.47-.08-.1-.22-.15-.4-.15-.21,0-.38.07-.51.2-.13.13-.19.31-.19.53v1.44h-.52v-2.53h.51v.4c.08-.15.2-.27.35-.35.15-.08.32-.12.5-.12.6,0,.91.34.91,1.02Z"/><use width="45.12" height="43.94" transform="translate(5.77 5.99) scale(.07)" xlink:href="#New_Symbol"/></svg>