<?xml version="1.0" encoding="UTF-8"?><svg id="Layer_2" xmlns="http://www.w3.org/2000/svg" viewBox="0 0 240.73 126.23"><defs><style>.cls-1{letter-spacing:0em;}.cls-2{letter-spacing:-.02em;}.cls-3{letter-spacing:-.01em;}.cls-4{letter-spacing:0em;}.cls-5{letter-spacing:0em;}.cls-6{letter-spacing:0em;}.cls-7{letter-spacing:0em;}.cls-8{letter-spacing:0em;}.cls-9{fill:#231f20;font-family:PublicSansRoman-Regular, 'Public Sans';font-size:10.13px;font-variation-settings:'wght' 400;}.cls-10{letter-spacing:0em;}.cls-11{letter-spacing:-.01em;}.cls-12{font-family:NunitoSans-ExtraBold, 'Nunito Sans';font-size:20.25px;font-weight:700;}.cls-12,.cls-13{fill:#53a76d;}.cls-13{stroke:#53a76d;}.cls-14{letter-spacing:0em;}.cls-15{letter-spacing:-.01em;}.cls-16{letter-spacing:-.02em;}.cls-17{fill:#fff;stroke-width:0px;}</style></defs><rect class="cls-17" width="240.73" height="126.23"/><path class="cls-13" d="m103.02,9.7c-.65-1.01-1.77-1.61-2.94-1.54-1.5.08-2.35,1.2-2.46,1.35-.58,3.24-1.06,6.85-1.32,10.78-.2,3.06-.25,5.94-.19,8.6.3,1.17.98,3.18,2.59,5.19,1.75,2.2,3.75,3.35,4.86,3.89-.18,9.72-.36,19.43-.53,29.15,0,.11,0,.76.54,1.26.47.43,1.03.44,1.15.43h8.31c.24,0,.92-.06,1.55-.56.46-.37.68-.81.77-1.04-.42-9.83-.84-19.66-1.27-29.49,1.21-.53,3.53-1.74,5.5-4.24,1.56-1.98,2.25-3.95,2.57-5.15-.11-2.94-.34-6.09-.72-9.42-.4-3.45-.92-6.68-1.51-9.65-.75-.93-1.92-1.39-3.05-1.19-1.46.25-2.16,1.45-2.25,1.62-.03,5.86-.06,11.71-.09,17.57-.16.11-.68.44-1.4.37-.55-.05-.93-.29-1.09-.42-.16-5.98-.32-11.97-.47-17.95-.14-.14-1.28-1.29-3-1.1-1.53.16-2.37,1.25-2.51,1.44-.17,5.8-.34,11.6-.52,17.4-.1.08-.61.45-1.31.35-.49-.07-.81-.33-.93-.44-.09-5.74-.19-11.47-.28-17.21Z"/><path class="cls-13" d="m132.98,66.91c.17.28.43.64.81.99.61.55,1.24.8,1.62.92h6.93c.39-.14.98-.42,1.56-.97.35-.33.59-.67.75-.94-.04-18.96-.08-37.92-.12-56.88-.13-.28-.53-1.02-1.4-1.51-1.15-.64-2.29-.36-2.54-.29-8.5,3.19-14.18,10.94-14.29,19.38-.14,9.8,7.29,15.84,8.22,16.57-.51,7.58-1.03,15.15-1.54,22.73Z"/><text transform="translate(66.5 97.86)"><tspan class="cls-12"><tspan x="0" y="0">48,389,101</tspan></tspan><tspan class="cls-9"><tspan class="cls-14" x="-9.68" y="13.92">M</tspan><tspan class="cls-10" x="-.78" y="13.92">e</tspan><tspan x="4.89" y="13.92">a</tspan><tspan class="cls-16" x="10.49" y="13.92">l</tspan><tspan class="cls-4" x="13.4" y="13.92">s</tspan><tspan x="18.49" y="13.92" xml:space="preserve"> Di</tspan><tspan class="cls-15" x="30.48" y="13.92">s</tspan><tspan class="cls-5" x="35.49" y="13.92">tr</tspan><tspan class="cls-1" x="43.39" y="13.92">i</tspan><tspan class="cls-8" x="45.96" y="13.92">b</tspan><tspan x="51.98" y="13.92">u</tspan><tspan class="cls-11" x="57.86" y="13.92">t</tspan><tspan class="cls-6" x="61.66" y="13.92">ed Annua</tspan><tspan class="cls-3" x="106.25" y="13.92">l</tspan><tspan class="cls-2" x="109.17" y="13.92">l</tspan><tspan class="cls-7" x="112.03" y="13.92">y</tspan></tspan></text></svg>