<?xml version="1.0" encoding="UTF-8"?><svg id="Layer_2" xmlns="http://www.w3.org/2000/svg" viewBox="0 0 240.73 126.23"><defs><style>.cls-1{letter-spacing:0em;}.cls-2{letter-spacing:-.02em;}.cls-3{letter-spacing:0em;}.cls-4{fill:#231f20;font-family:PublicSansRoman-Regular, 'Public Sans';font-size:10.13px;font-variation-settings:'wght' 400;}.cls-5{letter-spacing:-.03em;}.cls-6{letter-spacing:0em;}.cls-7{stroke:#53a76d;}.cls-7,.cls-8{fill:#53a76d;}.cls-9{letter-spacing:-.02em;}.cls-10{letter-spacing:0em;}.cls-11{letter-spacing:0em;}.cls-12{fill:#fff;stroke-width:0px;}.cls-8{font-family:NunitoSans-ExtraBold, 'Nunito Sans';font-size:20.25px;font-weight:700;}</style></defs><rect class="cls-12" width="240.73" height="126.23"/><circle class="cls-7" cx="120.41" cy="23.77" r="14.65"/><circle class="cls-7" cx="149.36" cy="25.46" r="8.79"/><circle class="cls-7" cx="91.38" cy="25.65" r="8.61"/><path class="cls-7" d="m101.16,40.65c-2.11,1.32-3.58,2.75-4.53,3.8-.89.99-2.5,2.82-3.61,5.7-.7,1.81-.97,3.41-1.08,4.51-3.14.12-6.28.24-9.42.36-.26-.03-1.44-.22-2.27-1.28-.64-.81-.72-1.68-.73-2v-6.86c-.02-.49-.07-2.56,1.45-4.39,1.78-2.14,4.31-2.25,4.71-2.27h10.68c.49-.03,1.43-.03,2.49.43,1.34.59,2.05,1.58,2.31,2Z"/><path class="cls-7" d="m101.26,66.6c-.35.05-1.87.21-3.3-.81-1.68-1.2-1.89-3.07-1.92-3.35v-9.74c.23-1.12.97-3.98,3.51-6.47,2.98-2.92,6.49-3.41,7.56-3.52h6.14c.73.63,3.28,2.67,7.13,2.8,4.32.14,7.22-2.23,7.88-2.8h4.73c1.34.21,4.23.84,7.02,3.12,3.23,2.63,4.41,5.89,4.79,7.16v9.3c.01.27.06,1.9-1.2,3.17-1.56,1.57-3.71,1.16-3.88,1.13h-38.48Z"/><path class="cls-7" d="m139.57,40.48c2.11,1.32,3.58,2.75,4.53,3.8.89.99,2.5,2.82,3.61,5.7.7,1.81.97,3.41,1.08,4.51,3.14.12,6.28.24,9.42.36.26-.03,1.44-.22,2.27-1.28.64-.81.72-1.68.73-2v-6.86c.02-.49.07-2.56-1.45-4.39-1.78-2.14-4.31-2.25-4.71-2.27h-10.68c-.49-.03-1.43-.03-2.49.43-1.34.59-2.05,1.58-2.31,2Z"/><text transform="translate(87.43 97.86)"><tspan class="cls-8"><tspan x="0" y="0">76,079</tspan></tspan><tspan class="cls-4"><tspan class="cls-11" x="-6.18" y="17.23">P</tspan><tspan class="cls-10" x=".18" y="17.23">eop</tspan><tspan class="cls-5" x="17.68" y="17.23">l</tspan><tspan class="cls-6" x="20.5" y="17.23">e</tspan><tspan x="26.17" y="17.23"> </tspan><tspan class="cls-9" x="28.63" y="17.23">F</tspan><tspan x="34.5" y="17.23">ed Da</tspan><tspan class="cls-1" x="61.37" y="17.23">i</tspan><tspan class="cls-2" x="63.94" y="17.23">l</tspan><tspan class="cls-3" x="66.81" y="17.23">y</tspan></tspan></text></svg>